# xmcd
#
# Track frame offsets:
#	150
#	21517
#	56944
#	76945
#	112204
#	138115
#	156797
#	194147
#	224454
#	238626
#	262602
#	286524
#	302268
#
# Disc length: 4558 seconds
#
# Revision: 0
# Processed by: cddbd v1.5.2PL0 Copyright (c) Steve Scherf et al.
# Submitted via: EasyCDDAExtractor 12.0.4.1
#
DISCID=b311cc0d
DTITLE=Metallica - For Whom The Bells Toll [CD.4)
DYEAR=2010
DGENRE=Hard Rock
TTITLE0=Fight Fire With Fire
TTITLE1=The End Of The Line
TTITLE2=I Disappear
TTITLE3=Am I Evil
TTITLE4=Harvester Of Sorrow
TTITLE5=Whiplash
TTITLE6=Bleeding Me
TTITLE7=Wherever I May Roam
TTITLE8=So What
TTITLE9=Mama Said
TTITLE10=Devils Dance
TTITLE11=Last Caress/Green Hell
TTITLE12=All Within My Hands
EXTD=
EXTT0=
EXTT1=
EXTT2=
EXTT3=
EXTT4=
EXTT5=
EXTT6=
EXTT7=
EXTT8=
EXTT9=
EXTT10=
EXTT11=
EXTT12=
PLAYORDER=
